<mxfile host="app.diagrams.net" modified="2022-10-07T09:05:52.135Z" agent="5.0 (Macintosh; Intel Mac OS X 10_15_7) AppleWebKit/537.36 (KHTML, like Gecko) Chrome/105.0.0.0 Safari/537.36" etag="nlu9t_-8oW2IiQvAF0nf" version="20.4.0" type="github">
  <diagram id="jG2yQ_XI5GP4jsiABWb_" name="第 1 页">
    <mxGraphModel dx="2710" dy="-129" grid="1" gridSize="10" guides="1" tooltips="1" connect="1" arrows="1" fold="1" page="1" pageScale="1" pageWidth="827" pageHeight="1169" math="0" shadow="0">
      <root>
        <mxCell id="0" />
        <mxCell id="1" parent="0" />
        <mxCell id="sduHOVPVzKcLiKWjeiUl-1" value="" style="group" vertex="1" connectable="0" parent="1">
          <mxGeometry x="-741" y="1169" width="110" height="290" as="geometry" />
        </mxCell>
        <mxCell id="sduHOVPVzKcLiKWjeiUl-2" value="" style="rounded=1;whiteSpace=wrap;html=1;strokeColor=#999999;" vertex="1" parent="sduHOVPVzKcLiKWjeiUl-1">
          <mxGeometry x="13" y="154" width="84" height="130" as="geometry" />
        </mxCell>
        <mxCell id="sduHOVPVzKcLiKWjeiUl-3" value="" style="group" vertex="1" connectable="0" parent="sduHOVPVzKcLiKWjeiUl-1">
          <mxGeometry x="25" y="164" width="60" height="110.5" as="geometry" />
        </mxCell>
        <mxCell id="sduHOVPVzKcLiKWjeiUl-4" value="" style="rounded=0;whiteSpace=wrap;html=1;fontFamily=Times New Roman;fontSize=2;strokeColor=#808080;" vertex="1" parent="sduHOVPVzKcLiKWjeiUl-3">
          <mxGeometry width="20" height="20.5" as="geometry" />
        </mxCell>
        <mxCell id="sduHOVPVzKcLiKWjeiUl-5" style="edgeStyle=none;rounded=0;orthogonalLoop=1;jettySize=auto;html=1;exitX=1;exitY=0.5;exitDx=0;exitDy=0;fontFamily=Times New Roman;fontSize=2;endArrow=none;endFill=0;strokeColor=#808080;" edge="1" parent="sduHOVPVzKcLiKWjeiUl-3" source="sduHOVPVzKcLiKWjeiUl-6">
          <mxGeometry relative="1" as="geometry">
            <mxPoint x="40" y="70.5" as="targetPoint" />
          </mxGeometry>
        </mxCell>
        <mxCell id="sduHOVPVzKcLiKWjeiUl-6" value="" style="rounded=0;whiteSpace=wrap;html=1;fontFamily=Times New Roman;fontSize=2;strokeColor=#808080;" vertex="1" parent="sduHOVPVzKcLiKWjeiUl-3">
          <mxGeometry y="30.5" width="20" height="20" as="geometry" />
        </mxCell>
        <mxCell id="sduHOVPVzKcLiKWjeiUl-7" value="" style="rounded=0;whiteSpace=wrap;html=1;fontFamily=Times New Roman;fontSize=2;strokeColor=#808080;" vertex="1" parent="sduHOVPVzKcLiKWjeiUl-3">
          <mxGeometry y="60.5" width="20" height="20" as="geometry" />
        </mxCell>
        <mxCell id="sduHOVPVzKcLiKWjeiUl-8" value="" style="rounded=0;whiteSpace=wrap;html=1;fontFamily=Times New Roman;fontSize=2;strokeColor=#808080;" vertex="1" parent="sduHOVPVzKcLiKWjeiUl-3">
          <mxGeometry y="90.5" width="20" height="20" as="geometry" />
        </mxCell>
        <mxCell id="sduHOVPVzKcLiKWjeiUl-9" value="" style="rounded=0;whiteSpace=wrap;html=1;fontFamily=Times New Roman;fontSize=2;strokeColor=#808080;" vertex="1" parent="sduHOVPVzKcLiKWjeiUl-3">
          <mxGeometry x="40" width="20" height="20" as="geometry" />
        </mxCell>
        <mxCell id="sduHOVPVzKcLiKWjeiUl-10" style="edgeStyle=orthogonalEdgeStyle;rounded=0;orthogonalLoop=1;jettySize=auto;html=1;entryX=0;entryY=0.5;entryDx=0;entryDy=0;fontFamily=Times New Roman;fontSize=2;endArrow=none;endFill=0;strokeColor=#808080;" edge="1" parent="sduHOVPVzKcLiKWjeiUl-3" source="sduHOVPVzKcLiKWjeiUl-4" target="sduHOVPVzKcLiKWjeiUl-9">
          <mxGeometry relative="1" as="geometry" />
        </mxCell>
        <mxCell id="sduHOVPVzKcLiKWjeiUl-11" style="edgeStyle=none;rounded=0;orthogonalLoop=1;jettySize=auto;html=1;exitX=1;exitY=0.5;exitDx=0;exitDy=0;entryX=0;entryY=0.5;entryDx=0;entryDy=0;fontFamily=Times New Roman;fontSize=2;endArrow=none;endFill=0;strokeColor=#808080;" edge="1" parent="sduHOVPVzKcLiKWjeiUl-3" source="sduHOVPVzKcLiKWjeiUl-6" target="sduHOVPVzKcLiKWjeiUl-9">
          <mxGeometry relative="1" as="geometry" />
        </mxCell>
        <mxCell id="sduHOVPVzKcLiKWjeiUl-12" style="edgeStyle=none;rounded=0;orthogonalLoop=1;jettySize=auto;html=1;exitX=1;exitY=0.5;exitDx=0;exitDy=0;entryX=0;entryY=0.5;entryDx=0;entryDy=0;fontFamily=Times New Roman;fontSize=2;endArrow=none;endFill=0;strokeColor=#808080;" edge="1" parent="sduHOVPVzKcLiKWjeiUl-3" source="sduHOVPVzKcLiKWjeiUl-7" target="sduHOVPVzKcLiKWjeiUl-9">
          <mxGeometry relative="1" as="geometry" />
        </mxCell>
        <mxCell id="sduHOVPVzKcLiKWjeiUl-13" style="edgeStyle=none;rounded=0;orthogonalLoop=1;jettySize=auto;html=1;exitX=1;exitY=0.5;exitDx=0;exitDy=0;entryX=0;entryY=0.5;entryDx=0;entryDy=0;fontFamily=Times New Roman;fontSize=2;endArrow=none;endFill=0;strokeColor=#808080;" edge="1" parent="sduHOVPVzKcLiKWjeiUl-3" source="sduHOVPVzKcLiKWjeiUl-8" target="sduHOVPVzKcLiKWjeiUl-9">
          <mxGeometry relative="1" as="geometry" />
        </mxCell>
        <mxCell id="sduHOVPVzKcLiKWjeiUl-14" value="" style="rounded=0;whiteSpace=wrap;html=1;fontFamily=Times New Roman;fontSize=2;strokeColor=#808080;" vertex="1" parent="sduHOVPVzKcLiKWjeiUl-3">
          <mxGeometry x="40" y="30.5" width="20" height="20" as="geometry" />
        </mxCell>
        <mxCell id="sduHOVPVzKcLiKWjeiUl-15" style="edgeStyle=none;rounded=0;orthogonalLoop=1;jettySize=auto;html=1;entryX=0;entryY=0.5;entryDx=0;entryDy=0;fontFamily=Times New Roman;fontSize=2;endArrow=none;endFill=0;exitX=1;exitY=0.5;exitDx=0;exitDy=0;strokeColor=#808080;" edge="1" parent="sduHOVPVzKcLiKWjeiUl-3" source="sduHOVPVzKcLiKWjeiUl-4" target="sduHOVPVzKcLiKWjeiUl-14">
          <mxGeometry relative="1" as="geometry" />
        </mxCell>
        <mxCell id="sduHOVPVzKcLiKWjeiUl-16" style="edgeStyle=none;rounded=0;orthogonalLoop=1;jettySize=auto;html=1;exitX=1;exitY=0.5;exitDx=0;exitDy=0;entryX=0;entryY=0.5;entryDx=0;entryDy=0;fontFamily=Times New Roman;fontSize=2;endArrow=none;endFill=0;strokeColor=#808080;" edge="1" parent="sduHOVPVzKcLiKWjeiUl-3" source="sduHOVPVzKcLiKWjeiUl-6" target="sduHOVPVzKcLiKWjeiUl-14">
          <mxGeometry relative="1" as="geometry" />
        </mxCell>
        <mxCell id="sduHOVPVzKcLiKWjeiUl-17" style="edgeStyle=none;rounded=0;orthogonalLoop=1;jettySize=auto;html=1;exitX=1;exitY=0.5;exitDx=0;exitDy=0;entryX=0;entryY=0.5;entryDx=0;entryDy=0;fontFamily=Times New Roman;fontSize=2;endArrow=none;endFill=0;strokeColor=#808080;" edge="1" parent="sduHOVPVzKcLiKWjeiUl-3" source="sduHOVPVzKcLiKWjeiUl-7" target="sduHOVPVzKcLiKWjeiUl-14">
          <mxGeometry relative="1" as="geometry" />
        </mxCell>
        <mxCell id="sduHOVPVzKcLiKWjeiUl-18" style="edgeStyle=none;rounded=0;orthogonalLoop=1;jettySize=auto;html=1;exitX=1;exitY=0.5;exitDx=0;exitDy=0;entryX=0;entryY=0.5;entryDx=0;entryDy=0;fontFamily=Times New Roman;fontSize=2;endArrow=none;endFill=0;strokeColor=#808080;" edge="1" parent="sduHOVPVzKcLiKWjeiUl-3" source="sduHOVPVzKcLiKWjeiUl-8" target="sduHOVPVzKcLiKWjeiUl-14">
          <mxGeometry relative="1" as="geometry" />
        </mxCell>
        <mxCell id="sduHOVPVzKcLiKWjeiUl-19" value="" style="rounded=0;whiteSpace=wrap;html=1;fontFamily=Times New Roman;fontSize=2;strokeColor=#808080;" vertex="1" parent="sduHOVPVzKcLiKWjeiUl-3">
          <mxGeometry x="40" y="60.5" width="20" height="20" as="geometry" />
        </mxCell>
        <mxCell id="sduHOVPVzKcLiKWjeiUl-20" style="edgeStyle=none;rounded=0;orthogonalLoop=1;jettySize=auto;html=1;entryX=0;entryY=0.5;entryDx=0;entryDy=0;fontFamily=Times New Roman;fontSize=2;endArrow=none;endFill=0;exitX=1;exitY=0.5;exitDx=0;exitDy=0;strokeColor=#808080;" edge="1" parent="sduHOVPVzKcLiKWjeiUl-3" source="sduHOVPVzKcLiKWjeiUl-4" target="sduHOVPVzKcLiKWjeiUl-19">
          <mxGeometry relative="1" as="geometry" />
        </mxCell>
        <mxCell id="sduHOVPVzKcLiKWjeiUl-21" style="edgeStyle=none;rounded=0;orthogonalLoop=1;jettySize=auto;html=1;exitX=1;exitY=0.5;exitDx=0;exitDy=0;entryX=0;entryY=0.5;entryDx=0;entryDy=0;fontFamily=Times New Roman;fontSize=2;endArrow=none;endFill=0;strokeColor=#808080;" edge="1" parent="sduHOVPVzKcLiKWjeiUl-3" source="sduHOVPVzKcLiKWjeiUl-7" target="sduHOVPVzKcLiKWjeiUl-19">
          <mxGeometry relative="1" as="geometry" />
        </mxCell>
        <mxCell id="sduHOVPVzKcLiKWjeiUl-22" style="edgeStyle=none;rounded=0;orthogonalLoop=1;jettySize=auto;html=1;exitX=1;exitY=0.5;exitDx=0;exitDy=0;entryX=0;entryY=0.5;entryDx=0;entryDy=0;fontFamily=Times New Roman;fontSize=2;endArrow=none;endFill=0;strokeColor=#808080;" edge="1" parent="sduHOVPVzKcLiKWjeiUl-3" source="sduHOVPVzKcLiKWjeiUl-8" target="sduHOVPVzKcLiKWjeiUl-19">
          <mxGeometry relative="1" as="geometry" />
        </mxCell>
        <mxCell id="sduHOVPVzKcLiKWjeiUl-23" value="" style="rounded=0;whiteSpace=wrap;html=1;fontFamily=Times New Roman;fontSize=2;strokeColor=#808080;" vertex="1" parent="sduHOVPVzKcLiKWjeiUl-3">
          <mxGeometry x="40" y="90.5" width="20" height="20" as="geometry" />
        </mxCell>
        <mxCell id="sduHOVPVzKcLiKWjeiUl-24" style="edgeStyle=none;rounded=0;orthogonalLoop=1;jettySize=auto;html=1;entryX=0;entryY=0.5;entryDx=0;entryDy=0;fontFamily=Times New Roman;fontSize=2;endArrow=none;endFill=0;exitX=1;exitY=0.5;exitDx=0;exitDy=0;strokeColor=#808080;" edge="1" parent="sduHOVPVzKcLiKWjeiUl-3" source="sduHOVPVzKcLiKWjeiUl-4" target="sduHOVPVzKcLiKWjeiUl-23">
          <mxGeometry relative="1" as="geometry" />
        </mxCell>
        <mxCell id="sduHOVPVzKcLiKWjeiUl-25" style="edgeStyle=none;rounded=0;orthogonalLoop=1;jettySize=auto;html=1;exitX=1;exitY=0.5;exitDx=0;exitDy=0;entryX=0;entryY=0.5;entryDx=0;entryDy=0;fontFamily=Times New Roman;fontSize=2;endArrow=none;endFill=0;strokeColor=#808080;" edge="1" parent="sduHOVPVzKcLiKWjeiUl-3" source="sduHOVPVzKcLiKWjeiUl-6" target="sduHOVPVzKcLiKWjeiUl-23">
          <mxGeometry relative="1" as="geometry" />
        </mxCell>
        <mxCell id="sduHOVPVzKcLiKWjeiUl-26" style="edgeStyle=none;rounded=0;orthogonalLoop=1;jettySize=auto;html=1;exitX=1;exitY=0.5;exitDx=0;exitDy=0;entryX=0;entryY=0.5;entryDx=0;entryDy=0;fontFamily=Times New Roman;fontSize=2;endArrow=none;endFill=0;strokeColor=#808080;" edge="1" parent="sduHOVPVzKcLiKWjeiUl-3" source="sduHOVPVzKcLiKWjeiUl-7" target="sduHOVPVzKcLiKWjeiUl-23">
          <mxGeometry relative="1" as="geometry" />
        </mxCell>
        <mxCell id="sduHOVPVzKcLiKWjeiUl-27" style="edgeStyle=none;rounded=0;orthogonalLoop=1;jettySize=auto;html=1;exitX=1;exitY=0.5;exitDx=0;exitDy=0;entryX=0;entryY=0.5;entryDx=0;entryDy=0;fontFamily=Times New Roman;fontSize=2;endArrow=none;endFill=0;strokeColor=#808080;" edge="1" parent="sduHOVPVzKcLiKWjeiUl-3" source="sduHOVPVzKcLiKWjeiUl-8" target="sduHOVPVzKcLiKWjeiUl-23">
          <mxGeometry relative="1" as="geometry" />
        </mxCell>
        <mxCell id="sduHOVPVzKcLiKWjeiUl-28" style="edgeStyle=none;rounded=0;orthogonalLoop=1;jettySize=auto;html=1;entryX=1;entryY=0.5;entryDx=0;entryDy=0;fontFamily=Times New Roman;fontSize=2;endArrow=none;endFill=0;strokeColor=#808080;" edge="1" parent="sduHOVPVzKcLiKWjeiUl-3" source="sduHOVPVzKcLiKWjeiUl-4" target="sduHOVPVzKcLiKWjeiUl-4">
          <mxGeometry relative="1" as="geometry" />
        </mxCell>
        <mxCell id="sduHOVPVzKcLiKWjeiUl-29" value="" style="endArrow=classic;html=1;rounded=0;strokeColor=#999999;entryX=0.5;entryY=0;entryDx=0;entryDy=0;exitX=0.5;exitY=1;exitDx=0;exitDy=0;" edge="1" parent="sduHOVPVzKcLiKWjeiUl-1" source="sduHOVPVzKcLiKWjeiUl-30" target="sduHOVPVzKcLiKWjeiUl-2">
          <mxGeometry width="50" height="50" relative="1" as="geometry">
            <mxPoint x="55" y="136" as="sourcePoint" />
            <mxPoint x="105" y="91.5" as="targetPoint" />
          </mxGeometry>
        </mxCell>
        <mxCell id="sduHOVPVzKcLiKWjeiUl-30" value="" style="rounded=1;whiteSpace=wrap;html=1;strokeColor=#999999;" vertex="1" parent="sduHOVPVzKcLiKWjeiUl-1">
          <mxGeometry x="13" y="6" width="84" height="130" as="geometry" />
        </mxCell>
        <mxCell id="sduHOVPVzKcLiKWjeiUl-31" value="" style="group" vertex="1" connectable="0" parent="sduHOVPVzKcLiKWjeiUl-1">
          <mxGeometry x="25" y="16" width="60" height="110.5" as="geometry" />
        </mxCell>
        <mxCell id="sduHOVPVzKcLiKWjeiUl-32" value="" style="rounded=0;whiteSpace=wrap;html=1;fontFamily=Times New Roman;fontSize=2;strokeColor=#808080;" vertex="1" parent="sduHOVPVzKcLiKWjeiUl-31">
          <mxGeometry width="20" height="20.5" as="geometry" />
        </mxCell>
        <mxCell id="sduHOVPVzKcLiKWjeiUl-33" style="edgeStyle=none;rounded=0;orthogonalLoop=1;jettySize=auto;html=1;exitX=1;exitY=0.5;exitDx=0;exitDy=0;fontFamily=Times New Roman;fontSize=2;endArrow=none;endFill=0;strokeColor=#808080;" edge="1" parent="sduHOVPVzKcLiKWjeiUl-31" source="sduHOVPVzKcLiKWjeiUl-34">
          <mxGeometry relative="1" as="geometry">
            <mxPoint x="40" y="70.5" as="targetPoint" />
          </mxGeometry>
        </mxCell>
        <mxCell id="sduHOVPVzKcLiKWjeiUl-34" value="" style="rounded=0;whiteSpace=wrap;html=1;fontFamily=Times New Roman;fontSize=2;strokeColor=#808080;" vertex="1" parent="sduHOVPVzKcLiKWjeiUl-31">
          <mxGeometry y="30.5" width="20" height="20" as="geometry" />
        </mxCell>
        <mxCell id="sduHOVPVzKcLiKWjeiUl-35" value="" style="rounded=0;whiteSpace=wrap;html=1;fontFamily=Times New Roman;fontSize=2;strokeColor=#808080;" vertex="1" parent="sduHOVPVzKcLiKWjeiUl-31">
          <mxGeometry y="60.5" width="20" height="20" as="geometry" />
        </mxCell>
        <mxCell id="sduHOVPVzKcLiKWjeiUl-36" value="" style="rounded=0;whiteSpace=wrap;html=1;fontFamily=Times New Roman;fontSize=2;strokeColor=#808080;" vertex="1" parent="sduHOVPVzKcLiKWjeiUl-31">
          <mxGeometry y="90.5" width="20" height="20" as="geometry" />
        </mxCell>
        <mxCell id="sduHOVPVzKcLiKWjeiUl-37" value="" style="rounded=0;whiteSpace=wrap;html=1;fontFamily=Times New Roman;fontSize=2;strokeColor=#808080;" vertex="1" parent="sduHOVPVzKcLiKWjeiUl-31">
          <mxGeometry x="40" width="20" height="20" as="geometry" />
        </mxCell>
        <mxCell id="sduHOVPVzKcLiKWjeiUl-38" style="edgeStyle=orthogonalEdgeStyle;rounded=0;orthogonalLoop=1;jettySize=auto;html=1;entryX=0;entryY=0.5;entryDx=0;entryDy=0;fontFamily=Times New Roman;fontSize=2;endArrow=none;endFill=0;strokeColor=#808080;" edge="1" parent="sduHOVPVzKcLiKWjeiUl-31" source="sduHOVPVzKcLiKWjeiUl-32" target="sduHOVPVzKcLiKWjeiUl-37">
          <mxGeometry relative="1" as="geometry" />
        </mxCell>
        <mxCell id="sduHOVPVzKcLiKWjeiUl-39" style="edgeStyle=none;rounded=0;orthogonalLoop=1;jettySize=auto;html=1;exitX=1;exitY=0.5;exitDx=0;exitDy=0;entryX=0;entryY=0.5;entryDx=0;entryDy=0;fontFamily=Times New Roman;fontSize=2;endArrow=none;endFill=0;strokeColor=#808080;" edge="1" parent="sduHOVPVzKcLiKWjeiUl-31" source="sduHOVPVzKcLiKWjeiUl-34" target="sduHOVPVzKcLiKWjeiUl-37">
          <mxGeometry relative="1" as="geometry" />
        </mxCell>
        <mxCell id="sduHOVPVzKcLiKWjeiUl-40" style="edgeStyle=none;rounded=0;orthogonalLoop=1;jettySize=auto;html=1;exitX=1;exitY=0.5;exitDx=0;exitDy=0;entryX=0;entryY=0.5;entryDx=0;entryDy=0;fontFamily=Times New Roman;fontSize=2;endArrow=none;endFill=0;strokeColor=#808080;" edge="1" parent="sduHOVPVzKcLiKWjeiUl-31" source="sduHOVPVzKcLiKWjeiUl-35" target="sduHOVPVzKcLiKWjeiUl-37">
          <mxGeometry relative="1" as="geometry" />
        </mxCell>
        <mxCell id="sduHOVPVzKcLiKWjeiUl-41" style="edgeStyle=none;rounded=0;orthogonalLoop=1;jettySize=auto;html=1;exitX=1;exitY=0.5;exitDx=0;exitDy=0;entryX=0;entryY=0.5;entryDx=0;entryDy=0;fontFamily=Times New Roman;fontSize=2;endArrow=none;endFill=0;strokeColor=#808080;" edge="1" parent="sduHOVPVzKcLiKWjeiUl-31" source="sduHOVPVzKcLiKWjeiUl-36" target="sduHOVPVzKcLiKWjeiUl-37">
          <mxGeometry relative="1" as="geometry" />
        </mxCell>
        <mxCell id="sduHOVPVzKcLiKWjeiUl-42" value="" style="rounded=0;whiteSpace=wrap;html=1;fontFamily=Times New Roman;fontSize=2;strokeColor=#808080;" vertex="1" parent="sduHOVPVzKcLiKWjeiUl-31">
          <mxGeometry x="40" y="30.5" width="20" height="20" as="geometry" />
        </mxCell>
        <mxCell id="sduHOVPVzKcLiKWjeiUl-43" style="edgeStyle=none;rounded=0;orthogonalLoop=1;jettySize=auto;html=1;entryX=0;entryY=0.5;entryDx=0;entryDy=0;fontFamily=Times New Roman;fontSize=2;endArrow=none;endFill=0;exitX=1;exitY=0.5;exitDx=0;exitDy=0;strokeColor=#808080;" edge="1" parent="sduHOVPVzKcLiKWjeiUl-31" source="sduHOVPVzKcLiKWjeiUl-32" target="sduHOVPVzKcLiKWjeiUl-42">
          <mxGeometry relative="1" as="geometry" />
        </mxCell>
        <mxCell id="sduHOVPVzKcLiKWjeiUl-44" style="edgeStyle=none;rounded=0;orthogonalLoop=1;jettySize=auto;html=1;exitX=1;exitY=0.5;exitDx=0;exitDy=0;entryX=0;entryY=0.5;entryDx=0;entryDy=0;fontFamily=Times New Roman;fontSize=2;endArrow=none;endFill=0;strokeColor=#808080;" edge="1" parent="sduHOVPVzKcLiKWjeiUl-31" source="sduHOVPVzKcLiKWjeiUl-34" target="sduHOVPVzKcLiKWjeiUl-42">
          <mxGeometry relative="1" as="geometry" />
        </mxCell>
        <mxCell id="sduHOVPVzKcLiKWjeiUl-45" style="edgeStyle=none;rounded=0;orthogonalLoop=1;jettySize=auto;html=1;exitX=1;exitY=0.5;exitDx=0;exitDy=0;entryX=0;entryY=0.5;entryDx=0;entryDy=0;fontFamily=Times New Roman;fontSize=2;endArrow=none;endFill=0;strokeColor=#808080;" edge="1" parent="sduHOVPVzKcLiKWjeiUl-31" source="sduHOVPVzKcLiKWjeiUl-35" target="sduHOVPVzKcLiKWjeiUl-42">
          <mxGeometry relative="1" as="geometry" />
        </mxCell>
        <mxCell id="sduHOVPVzKcLiKWjeiUl-46" style="edgeStyle=none;rounded=0;orthogonalLoop=1;jettySize=auto;html=1;exitX=1;exitY=0.5;exitDx=0;exitDy=0;entryX=0;entryY=0.5;entryDx=0;entryDy=0;fontFamily=Times New Roman;fontSize=2;endArrow=none;endFill=0;strokeColor=#808080;" edge="1" parent="sduHOVPVzKcLiKWjeiUl-31" source="sduHOVPVzKcLiKWjeiUl-36" target="sduHOVPVzKcLiKWjeiUl-42">
          <mxGeometry relative="1" as="geometry" />
        </mxCell>
        <mxCell id="sduHOVPVzKcLiKWjeiUl-47" value="" style="rounded=0;whiteSpace=wrap;html=1;fontFamily=Times New Roman;fontSize=2;strokeColor=#808080;" vertex="1" parent="sduHOVPVzKcLiKWjeiUl-31">
          <mxGeometry x="40" y="60.5" width="20" height="20" as="geometry" />
        </mxCell>
        <mxCell id="sduHOVPVzKcLiKWjeiUl-48" style="edgeStyle=none;rounded=0;orthogonalLoop=1;jettySize=auto;html=1;entryX=0;entryY=0.5;entryDx=0;entryDy=0;fontFamily=Times New Roman;fontSize=2;endArrow=none;endFill=0;exitX=1;exitY=0.5;exitDx=0;exitDy=0;strokeColor=#808080;" edge="1" parent="sduHOVPVzKcLiKWjeiUl-31" source="sduHOVPVzKcLiKWjeiUl-32" target="sduHOVPVzKcLiKWjeiUl-47">
          <mxGeometry relative="1" as="geometry" />
        </mxCell>
        <mxCell id="sduHOVPVzKcLiKWjeiUl-49" style="edgeStyle=none;rounded=0;orthogonalLoop=1;jettySize=auto;html=1;exitX=1;exitY=0.5;exitDx=0;exitDy=0;entryX=0;entryY=0.5;entryDx=0;entryDy=0;fontFamily=Times New Roman;fontSize=2;endArrow=none;endFill=0;strokeColor=#808080;" edge="1" parent="sduHOVPVzKcLiKWjeiUl-31" source="sduHOVPVzKcLiKWjeiUl-35" target="sduHOVPVzKcLiKWjeiUl-47">
          <mxGeometry relative="1" as="geometry" />
        </mxCell>
        <mxCell id="sduHOVPVzKcLiKWjeiUl-50" style="edgeStyle=none;rounded=0;orthogonalLoop=1;jettySize=auto;html=1;exitX=1;exitY=0.5;exitDx=0;exitDy=0;entryX=0;entryY=0.5;entryDx=0;entryDy=0;fontFamily=Times New Roman;fontSize=2;endArrow=none;endFill=0;strokeColor=#808080;" edge="1" parent="sduHOVPVzKcLiKWjeiUl-31" source="sduHOVPVzKcLiKWjeiUl-36" target="sduHOVPVzKcLiKWjeiUl-47">
          <mxGeometry relative="1" as="geometry" />
        </mxCell>
        <mxCell id="sduHOVPVzKcLiKWjeiUl-51" value="" style="rounded=0;whiteSpace=wrap;html=1;fontFamily=Times New Roman;fontSize=2;strokeColor=#808080;" vertex="1" parent="sduHOVPVzKcLiKWjeiUl-31">
          <mxGeometry x="40" y="90.5" width="20" height="20" as="geometry" />
        </mxCell>
        <mxCell id="sduHOVPVzKcLiKWjeiUl-52" style="edgeStyle=none;rounded=0;orthogonalLoop=1;jettySize=auto;html=1;entryX=0;entryY=0.5;entryDx=0;entryDy=0;fontFamily=Times New Roman;fontSize=2;endArrow=none;endFill=0;exitX=1;exitY=0.5;exitDx=0;exitDy=0;strokeColor=#808080;" edge="1" parent="sduHOVPVzKcLiKWjeiUl-31" source="sduHOVPVzKcLiKWjeiUl-32" target="sduHOVPVzKcLiKWjeiUl-51">
          <mxGeometry relative="1" as="geometry" />
        </mxCell>
        <mxCell id="sduHOVPVzKcLiKWjeiUl-53" style="edgeStyle=none;rounded=0;orthogonalLoop=1;jettySize=auto;html=1;exitX=1;exitY=0.5;exitDx=0;exitDy=0;entryX=0;entryY=0.5;entryDx=0;entryDy=0;fontFamily=Times New Roman;fontSize=2;endArrow=none;endFill=0;strokeColor=#808080;" edge="1" parent="sduHOVPVzKcLiKWjeiUl-31" source="sduHOVPVzKcLiKWjeiUl-34" target="sduHOVPVzKcLiKWjeiUl-51">
          <mxGeometry relative="1" as="geometry" />
        </mxCell>
        <mxCell id="sduHOVPVzKcLiKWjeiUl-54" style="edgeStyle=none;rounded=0;orthogonalLoop=1;jettySize=auto;html=1;exitX=1;exitY=0.5;exitDx=0;exitDy=0;entryX=0;entryY=0.5;entryDx=0;entryDy=0;fontFamily=Times New Roman;fontSize=2;endArrow=none;endFill=0;strokeColor=#808080;" edge="1" parent="sduHOVPVzKcLiKWjeiUl-31" source="sduHOVPVzKcLiKWjeiUl-35" target="sduHOVPVzKcLiKWjeiUl-51">
          <mxGeometry relative="1" as="geometry" />
        </mxCell>
        <mxCell id="sduHOVPVzKcLiKWjeiUl-55" style="edgeStyle=none;rounded=0;orthogonalLoop=1;jettySize=auto;html=1;exitX=1;exitY=0.5;exitDx=0;exitDy=0;entryX=0;entryY=0.5;entryDx=0;entryDy=0;fontFamily=Times New Roman;fontSize=2;endArrow=none;endFill=0;strokeColor=#808080;" edge="1" parent="sduHOVPVzKcLiKWjeiUl-31" source="sduHOVPVzKcLiKWjeiUl-36" target="sduHOVPVzKcLiKWjeiUl-51">
          <mxGeometry relative="1" as="geometry" />
        </mxCell>
        <mxCell id="sduHOVPVzKcLiKWjeiUl-56" style="edgeStyle=none;rounded=0;orthogonalLoop=1;jettySize=auto;html=1;entryX=1;entryY=0.5;entryDx=0;entryDy=0;fontFamily=Times New Roman;fontSize=2;endArrow=none;endFill=0;strokeColor=#808080;" edge="1" parent="sduHOVPVzKcLiKWjeiUl-31" source="sduHOVPVzKcLiKWjeiUl-32" target="sduHOVPVzKcLiKWjeiUl-32">
          <mxGeometry relative="1" as="geometry" />
        </mxCell>
        <mxCell id="sduHOVPVzKcLiKWjeiUl-57" value="&lt;font style=&quot;font-size: 18px;&quot;&gt;Generator&lt;/font&gt;" style="rounded=1;whiteSpace=wrap;html=1;fontSize=15;fillColor=#d5e8d4;strokeColor=#82b366;strokeWidth=1;fillStyle=auto;fontFamily=Times New Roman;opacity=80;" vertex="1" parent="sduHOVPVzKcLiKWjeiUl-1">
          <mxGeometry width="110" height="290" as="geometry" />
        </mxCell>
        <mxCell id="sduHOVPVzKcLiKWjeiUl-58" value="" style="group" vertex="1" connectable="0" parent="1">
          <mxGeometry x="-262" y="1169" width="110" height="290" as="geometry" />
        </mxCell>
        <mxCell id="sduHOVPVzKcLiKWjeiUl-59" value="" style="rounded=1;whiteSpace=wrap;html=1;strokeColor=#999999;" vertex="1" parent="sduHOVPVzKcLiKWjeiUl-58">
          <mxGeometry x="13" y="154" width="84" height="130" as="geometry" />
        </mxCell>
        <mxCell id="sduHOVPVzKcLiKWjeiUl-60" value="" style="group" vertex="1" connectable="0" parent="sduHOVPVzKcLiKWjeiUl-58">
          <mxGeometry x="25" y="164" width="60" height="110.5" as="geometry" />
        </mxCell>
        <mxCell id="sduHOVPVzKcLiKWjeiUl-61" value="" style="rounded=0;whiteSpace=wrap;html=1;fontFamily=Times New Roman;fontSize=2;strokeColor=#808080;" vertex="1" parent="sduHOVPVzKcLiKWjeiUl-60">
          <mxGeometry width="20" height="20.5" as="geometry" />
        </mxCell>
        <mxCell id="sduHOVPVzKcLiKWjeiUl-62" style="edgeStyle=none;rounded=0;orthogonalLoop=1;jettySize=auto;html=1;exitX=1;exitY=0.5;exitDx=0;exitDy=0;fontFamily=Times New Roman;fontSize=2;endArrow=none;endFill=0;strokeColor=#808080;" edge="1" parent="sduHOVPVzKcLiKWjeiUl-60" source="sduHOVPVzKcLiKWjeiUl-63">
          <mxGeometry relative="1" as="geometry">
            <mxPoint x="40" y="70.5" as="targetPoint" />
          </mxGeometry>
        </mxCell>
        <mxCell id="sduHOVPVzKcLiKWjeiUl-63" value="" style="rounded=0;whiteSpace=wrap;html=1;fontFamily=Times New Roman;fontSize=2;strokeColor=#808080;" vertex="1" parent="sduHOVPVzKcLiKWjeiUl-60">
          <mxGeometry y="30.5" width="20" height="20" as="geometry" />
        </mxCell>
        <mxCell id="sduHOVPVzKcLiKWjeiUl-64" value="" style="rounded=0;whiteSpace=wrap;html=1;fontFamily=Times New Roman;fontSize=2;strokeColor=#808080;" vertex="1" parent="sduHOVPVzKcLiKWjeiUl-60">
          <mxGeometry y="60.5" width="20" height="20" as="geometry" />
        </mxCell>
        <mxCell id="sduHOVPVzKcLiKWjeiUl-65" value="" style="rounded=0;whiteSpace=wrap;html=1;fontFamily=Times New Roman;fontSize=2;strokeColor=#808080;" vertex="1" parent="sduHOVPVzKcLiKWjeiUl-60">
          <mxGeometry y="90.5" width="20" height="20" as="geometry" />
        </mxCell>
        <mxCell id="sduHOVPVzKcLiKWjeiUl-66" value="" style="rounded=0;whiteSpace=wrap;html=1;fontFamily=Times New Roman;fontSize=2;strokeColor=#808080;" vertex="1" parent="sduHOVPVzKcLiKWjeiUl-60">
          <mxGeometry x="40" width="20" height="20" as="geometry" />
        </mxCell>
        <mxCell id="sduHOVPVzKcLiKWjeiUl-67" style="edgeStyle=orthogonalEdgeStyle;rounded=0;orthogonalLoop=1;jettySize=auto;html=1;entryX=0;entryY=0.5;entryDx=0;entryDy=0;fontFamily=Times New Roman;fontSize=2;endArrow=none;endFill=0;strokeColor=#808080;" edge="1" parent="sduHOVPVzKcLiKWjeiUl-60" source="sduHOVPVzKcLiKWjeiUl-61" target="sduHOVPVzKcLiKWjeiUl-66">
          <mxGeometry relative="1" as="geometry" />
        </mxCell>
        <mxCell id="sduHOVPVzKcLiKWjeiUl-68" style="edgeStyle=none;rounded=0;orthogonalLoop=1;jettySize=auto;html=1;exitX=1;exitY=0.5;exitDx=0;exitDy=0;entryX=0;entryY=0.5;entryDx=0;entryDy=0;fontFamily=Times New Roman;fontSize=2;endArrow=none;endFill=0;strokeColor=#808080;" edge="1" parent="sduHOVPVzKcLiKWjeiUl-60" source="sduHOVPVzKcLiKWjeiUl-63" target="sduHOVPVzKcLiKWjeiUl-66">
          <mxGeometry relative="1" as="geometry" />
        </mxCell>
        <mxCell id="sduHOVPVzKcLiKWjeiUl-69" style="edgeStyle=none;rounded=0;orthogonalLoop=1;jettySize=auto;html=1;exitX=1;exitY=0.5;exitDx=0;exitDy=0;entryX=0;entryY=0.5;entryDx=0;entryDy=0;fontFamily=Times New Roman;fontSize=2;endArrow=none;endFill=0;strokeColor=#808080;" edge="1" parent="sduHOVPVzKcLiKWjeiUl-60" source="sduHOVPVzKcLiKWjeiUl-64" target="sduHOVPVzKcLiKWjeiUl-66">
          <mxGeometry relative="1" as="geometry" />
        </mxCell>
        <mxCell id="sduHOVPVzKcLiKWjeiUl-70" style="edgeStyle=none;rounded=0;orthogonalLoop=1;jettySize=auto;html=1;exitX=1;exitY=0.5;exitDx=0;exitDy=0;entryX=0;entryY=0.5;entryDx=0;entryDy=0;fontFamily=Times New Roman;fontSize=2;endArrow=none;endFill=0;strokeColor=#808080;" edge="1" parent="sduHOVPVzKcLiKWjeiUl-60" source="sduHOVPVzKcLiKWjeiUl-65" target="sduHOVPVzKcLiKWjeiUl-66">
          <mxGeometry relative="1" as="geometry" />
        </mxCell>
        <mxCell id="sduHOVPVzKcLiKWjeiUl-71" value="" style="rounded=0;whiteSpace=wrap;html=1;fontFamily=Times New Roman;fontSize=2;strokeColor=#808080;" vertex="1" parent="sduHOVPVzKcLiKWjeiUl-60">
          <mxGeometry x="40" y="30.5" width="20" height="20" as="geometry" />
        </mxCell>
        <mxCell id="sduHOVPVzKcLiKWjeiUl-72" style="edgeStyle=none;rounded=0;orthogonalLoop=1;jettySize=auto;html=1;entryX=0;entryY=0.5;entryDx=0;entryDy=0;fontFamily=Times New Roman;fontSize=2;endArrow=none;endFill=0;exitX=1;exitY=0.5;exitDx=0;exitDy=0;strokeColor=#808080;" edge="1" parent="sduHOVPVzKcLiKWjeiUl-60" source="sduHOVPVzKcLiKWjeiUl-61" target="sduHOVPVzKcLiKWjeiUl-71">
          <mxGeometry relative="1" as="geometry" />
        </mxCell>
        <mxCell id="sduHOVPVzKcLiKWjeiUl-73" style="edgeStyle=none;rounded=0;orthogonalLoop=1;jettySize=auto;html=1;exitX=1;exitY=0.5;exitDx=0;exitDy=0;entryX=0;entryY=0.5;entryDx=0;entryDy=0;fontFamily=Times New Roman;fontSize=2;endArrow=none;endFill=0;strokeColor=#808080;" edge="1" parent="sduHOVPVzKcLiKWjeiUl-60" source="sduHOVPVzKcLiKWjeiUl-63" target="sduHOVPVzKcLiKWjeiUl-71">
          <mxGeometry relative="1" as="geometry" />
        </mxCell>
        <mxCell id="sduHOVPVzKcLiKWjeiUl-74" style="edgeStyle=none;rounded=0;orthogonalLoop=1;jettySize=auto;html=1;exitX=1;exitY=0.5;exitDx=0;exitDy=0;entryX=0;entryY=0.5;entryDx=0;entryDy=0;fontFamily=Times New Roman;fontSize=2;endArrow=none;endFill=0;strokeColor=#808080;" edge="1" parent="sduHOVPVzKcLiKWjeiUl-60" source="sduHOVPVzKcLiKWjeiUl-64" target="sduHOVPVzKcLiKWjeiUl-71">
          <mxGeometry relative="1" as="geometry" />
        </mxCell>
        <mxCell id="sduHOVPVzKcLiKWjeiUl-75" style="edgeStyle=none;rounded=0;orthogonalLoop=1;jettySize=auto;html=1;exitX=1;exitY=0.5;exitDx=0;exitDy=0;entryX=0;entryY=0.5;entryDx=0;entryDy=0;fontFamily=Times New Roman;fontSize=2;endArrow=none;endFill=0;strokeColor=#808080;" edge="1" parent="sduHOVPVzKcLiKWjeiUl-60" source="sduHOVPVzKcLiKWjeiUl-65" target="sduHOVPVzKcLiKWjeiUl-71">
          <mxGeometry relative="1" as="geometry" />
        </mxCell>
        <mxCell id="sduHOVPVzKcLiKWjeiUl-76" value="" style="rounded=0;whiteSpace=wrap;html=1;fontFamily=Times New Roman;fontSize=2;strokeColor=#808080;" vertex="1" parent="sduHOVPVzKcLiKWjeiUl-60">
          <mxGeometry x="40" y="60.5" width="20" height="20" as="geometry" />
        </mxCell>
        <mxCell id="sduHOVPVzKcLiKWjeiUl-77" style="edgeStyle=none;rounded=0;orthogonalLoop=1;jettySize=auto;html=1;entryX=0;entryY=0.5;entryDx=0;entryDy=0;fontFamily=Times New Roman;fontSize=2;endArrow=none;endFill=0;exitX=1;exitY=0.5;exitDx=0;exitDy=0;strokeColor=#808080;" edge="1" parent="sduHOVPVzKcLiKWjeiUl-60" source="sduHOVPVzKcLiKWjeiUl-61" target="sduHOVPVzKcLiKWjeiUl-76">
          <mxGeometry relative="1" as="geometry" />
        </mxCell>
        <mxCell id="sduHOVPVzKcLiKWjeiUl-78" style="edgeStyle=none;rounded=0;orthogonalLoop=1;jettySize=auto;html=1;exitX=1;exitY=0.5;exitDx=0;exitDy=0;entryX=0;entryY=0.5;entryDx=0;entryDy=0;fontFamily=Times New Roman;fontSize=2;endArrow=none;endFill=0;strokeColor=#808080;" edge="1" parent="sduHOVPVzKcLiKWjeiUl-60" source="sduHOVPVzKcLiKWjeiUl-64" target="sduHOVPVzKcLiKWjeiUl-76">
          <mxGeometry relative="1" as="geometry" />
        </mxCell>
        <mxCell id="sduHOVPVzKcLiKWjeiUl-79" style="edgeStyle=none;rounded=0;orthogonalLoop=1;jettySize=auto;html=1;exitX=1;exitY=0.5;exitDx=0;exitDy=0;entryX=0;entryY=0.5;entryDx=0;entryDy=0;fontFamily=Times New Roman;fontSize=2;endArrow=none;endFill=0;strokeColor=#808080;" edge="1" parent="sduHOVPVzKcLiKWjeiUl-60" source="sduHOVPVzKcLiKWjeiUl-65" target="sduHOVPVzKcLiKWjeiUl-76">
          <mxGeometry relative="1" as="geometry" />
        </mxCell>
        <mxCell id="sduHOVPVzKcLiKWjeiUl-80" value="" style="rounded=0;whiteSpace=wrap;html=1;fontFamily=Times New Roman;fontSize=2;strokeColor=#808080;" vertex="1" parent="sduHOVPVzKcLiKWjeiUl-60">
          <mxGeometry x="40" y="90.5" width="20" height="20" as="geometry" />
        </mxCell>
        <mxCell id="sduHOVPVzKcLiKWjeiUl-81" style="edgeStyle=none;rounded=0;orthogonalLoop=1;jettySize=auto;html=1;entryX=0;entryY=0.5;entryDx=0;entryDy=0;fontFamily=Times New Roman;fontSize=2;endArrow=none;endFill=0;exitX=1;exitY=0.5;exitDx=0;exitDy=0;strokeColor=#808080;" edge="1" parent="sduHOVPVzKcLiKWjeiUl-60" source="sduHOVPVzKcLiKWjeiUl-61" target="sduHOVPVzKcLiKWjeiUl-80">
          <mxGeometry relative="1" as="geometry" />
        </mxCell>
        <mxCell id="sduHOVPVzKcLiKWjeiUl-82" style="edgeStyle=none;rounded=0;orthogonalLoop=1;jettySize=auto;html=1;exitX=1;exitY=0.5;exitDx=0;exitDy=0;entryX=0;entryY=0.5;entryDx=0;entryDy=0;fontFamily=Times New Roman;fontSize=2;endArrow=none;endFill=0;strokeColor=#808080;" edge="1" parent="sduHOVPVzKcLiKWjeiUl-60" source="sduHOVPVzKcLiKWjeiUl-63" target="sduHOVPVzKcLiKWjeiUl-80">
          <mxGeometry relative="1" as="geometry" />
        </mxCell>
        <mxCell id="sduHOVPVzKcLiKWjeiUl-83" style="edgeStyle=none;rounded=0;orthogonalLoop=1;jettySize=auto;html=1;exitX=1;exitY=0.5;exitDx=0;exitDy=0;entryX=0;entryY=0.5;entryDx=0;entryDy=0;fontFamily=Times New Roman;fontSize=2;endArrow=none;endFill=0;strokeColor=#808080;" edge="1" parent="sduHOVPVzKcLiKWjeiUl-60" source="sduHOVPVzKcLiKWjeiUl-64" target="sduHOVPVzKcLiKWjeiUl-80">
          <mxGeometry relative="1" as="geometry" />
        </mxCell>
        <mxCell id="sduHOVPVzKcLiKWjeiUl-84" style="edgeStyle=none;rounded=0;orthogonalLoop=1;jettySize=auto;html=1;exitX=1;exitY=0.5;exitDx=0;exitDy=0;entryX=0;entryY=0.5;entryDx=0;entryDy=0;fontFamily=Times New Roman;fontSize=2;endArrow=none;endFill=0;strokeColor=#808080;" edge="1" parent="sduHOVPVzKcLiKWjeiUl-60" source="sduHOVPVzKcLiKWjeiUl-65" target="sduHOVPVzKcLiKWjeiUl-80">
          <mxGeometry relative="1" as="geometry" />
        </mxCell>
        <mxCell id="sduHOVPVzKcLiKWjeiUl-85" style="edgeStyle=none;rounded=0;orthogonalLoop=1;jettySize=auto;html=1;entryX=1;entryY=0.5;entryDx=0;entryDy=0;fontFamily=Times New Roman;fontSize=2;endArrow=none;endFill=0;strokeColor=#808080;" edge="1" parent="sduHOVPVzKcLiKWjeiUl-60" source="sduHOVPVzKcLiKWjeiUl-61" target="sduHOVPVzKcLiKWjeiUl-61">
          <mxGeometry relative="1" as="geometry" />
        </mxCell>
        <mxCell id="sduHOVPVzKcLiKWjeiUl-86" value="" style="endArrow=classic;html=1;rounded=0;strokeColor=#999999;entryX=0.5;entryY=0;entryDx=0;entryDy=0;exitX=0.5;exitY=1;exitDx=0;exitDy=0;" edge="1" parent="sduHOVPVzKcLiKWjeiUl-58" source="sduHOVPVzKcLiKWjeiUl-87" target="sduHOVPVzKcLiKWjeiUl-59">
          <mxGeometry width="50" height="50" relative="1" as="geometry">
            <mxPoint x="55" y="136" as="sourcePoint" />
            <mxPoint x="105" y="91.5" as="targetPoint" />
          </mxGeometry>
        </mxCell>
        <mxCell id="sduHOVPVzKcLiKWjeiUl-87" value="" style="rounded=1;whiteSpace=wrap;html=1;strokeColor=#999999;" vertex="1" parent="sduHOVPVzKcLiKWjeiUl-58">
          <mxGeometry x="13" y="6" width="84" height="130" as="geometry" />
        </mxCell>
        <mxCell id="sduHOVPVzKcLiKWjeiUl-88" value="" style="group" vertex="1" connectable="0" parent="sduHOVPVzKcLiKWjeiUl-58">
          <mxGeometry x="25" y="16" width="60" height="110.5" as="geometry" />
        </mxCell>
        <mxCell id="sduHOVPVzKcLiKWjeiUl-89" value="" style="rounded=0;whiteSpace=wrap;html=1;fontFamily=Times New Roman;fontSize=2;strokeColor=#808080;" vertex="1" parent="sduHOVPVzKcLiKWjeiUl-88">
          <mxGeometry width="20" height="20.5" as="geometry" />
        </mxCell>
        <mxCell id="sduHOVPVzKcLiKWjeiUl-90" style="edgeStyle=none;rounded=0;orthogonalLoop=1;jettySize=auto;html=1;exitX=1;exitY=0.5;exitDx=0;exitDy=0;fontFamily=Times New Roman;fontSize=2;endArrow=none;endFill=0;strokeColor=#808080;" edge="1" parent="sduHOVPVzKcLiKWjeiUl-88" source="sduHOVPVzKcLiKWjeiUl-91">
          <mxGeometry relative="1" as="geometry">
            <mxPoint x="40" y="70.5" as="targetPoint" />
          </mxGeometry>
        </mxCell>
        <mxCell id="sduHOVPVzKcLiKWjeiUl-91" value="" style="rounded=0;whiteSpace=wrap;html=1;fontFamily=Times New Roman;fontSize=2;strokeColor=#808080;" vertex="1" parent="sduHOVPVzKcLiKWjeiUl-88">
          <mxGeometry y="30.5" width="20" height="20" as="geometry" />
        </mxCell>
        <mxCell id="sduHOVPVzKcLiKWjeiUl-92" value="" style="rounded=0;whiteSpace=wrap;html=1;fontFamily=Times New Roman;fontSize=2;strokeColor=#808080;" vertex="1" parent="sduHOVPVzKcLiKWjeiUl-88">
          <mxGeometry y="60.5" width="20" height="20" as="geometry" />
        </mxCell>
        <mxCell id="sduHOVPVzKcLiKWjeiUl-93" value="" style="rounded=0;whiteSpace=wrap;html=1;fontFamily=Times New Roman;fontSize=2;strokeColor=#808080;" vertex="1" parent="sduHOVPVzKcLiKWjeiUl-88">
          <mxGeometry y="90.5" width="20" height="20" as="geometry" />
        </mxCell>
        <mxCell id="sduHOVPVzKcLiKWjeiUl-94" value="" style="rounded=0;whiteSpace=wrap;html=1;fontFamily=Times New Roman;fontSize=2;strokeColor=#808080;" vertex="1" parent="sduHOVPVzKcLiKWjeiUl-88">
          <mxGeometry x="40" width="20" height="20" as="geometry" />
        </mxCell>
        <mxCell id="sduHOVPVzKcLiKWjeiUl-95" style="edgeStyle=orthogonalEdgeStyle;rounded=0;orthogonalLoop=1;jettySize=auto;html=1;entryX=0;entryY=0.5;entryDx=0;entryDy=0;fontFamily=Times New Roman;fontSize=2;endArrow=none;endFill=0;strokeColor=#808080;" edge="1" parent="sduHOVPVzKcLiKWjeiUl-88" source="sduHOVPVzKcLiKWjeiUl-89" target="sduHOVPVzKcLiKWjeiUl-94">
          <mxGeometry relative="1" as="geometry" />
        </mxCell>
        <mxCell id="sduHOVPVzKcLiKWjeiUl-96" style="edgeStyle=none;rounded=0;orthogonalLoop=1;jettySize=auto;html=1;exitX=1;exitY=0.5;exitDx=0;exitDy=0;entryX=0;entryY=0.5;entryDx=0;entryDy=0;fontFamily=Times New Roman;fontSize=2;endArrow=none;endFill=0;strokeColor=#808080;" edge="1" parent="sduHOVPVzKcLiKWjeiUl-88" source="sduHOVPVzKcLiKWjeiUl-91" target="sduHOVPVzKcLiKWjeiUl-94">
          <mxGeometry relative="1" as="geometry" />
        </mxCell>
        <mxCell id="sduHOVPVzKcLiKWjeiUl-97" style="edgeStyle=none;rounded=0;orthogonalLoop=1;jettySize=auto;html=1;exitX=1;exitY=0.5;exitDx=0;exitDy=0;entryX=0;entryY=0.5;entryDx=0;entryDy=0;fontFamily=Times New Roman;fontSize=2;endArrow=none;endFill=0;strokeColor=#808080;" edge="1" parent="sduHOVPVzKcLiKWjeiUl-88" source="sduHOVPVzKcLiKWjeiUl-92" target="sduHOVPVzKcLiKWjeiUl-94">
          <mxGeometry relative="1" as="geometry" />
        </mxCell>
        <mxCell id="sduHOVPVzKcLiKWjeiUl-98" style="edgeStyle=none;rounded=0;orthogonalLoop=1;jettySize=auto;html=1;exitX=1;exitY=0.5;exitDx=0;exitDy=0;entryX=0;entryY=0.5;entryDx=0;entryDy=0;fontFamily=Times New Roman;fontSize=2;endArrow=none;endFill=0;strokeColor=#808080;" edge="1" parent="sduHOVPVzKcLiKWjeiUl-88" source="sduHOVPVzKcLiKWjeiUl-93" target="sduHOVPVzKcLiKWjeiUl-94">
          <mxGeometry relative="1" as="geometry" />
        </mxCell>
        <mxCell id="sduHOVPVzKcLiKWjeiUl-99" value="" style="rounded=0;whiteSpace=wrap;html=1;fontFamily=Times New Roman;fontSize=2;strokeColor=#808080;" vertex="1" parent="sduHOVPVzKcLiKWjeiUl-88">
          <mxGeometry x="40" y="30.5" width="20" height="20" as="geometry" />
        </mxCell>
        <mxCell id="sduHOVPVzKcLiKWjeiUl-100" style="edgeStyle=none;rounded=0;orthogonalLoop=1;jettySize=auto;html=1;entryX=0;entryY=0.5;entryDx=0;entryDy=0;fontFamily=Times New Roman;fontSize=2;endArrow=none;endFill=0;exitX=1;exitY=0.5;exitDx=0;exitDy=0;strokeColor=#808080;" edge="1" parent="sduHOVPVzKcLiKWjeiUl-88" source="sduHOVPVzKcLiKWjeiUl-89" target="sduHOVPVzKcLiKWjeiUl-99">
          <mxGeometry relative="1" as="geometry" />
        </mxCell>
        <mxCell id="sduHOVPVzKcLiKWjeiUl-101" style="edgeStyle=none;rounded=0;orthogonalLoop=1;jettySize=auto;html=1;exitX=1;exitY=0.5;exitDx=0;exitDy=0;entryX=0;entryY=0.5;entryDx=0;entryDy=0;fontFamily=Times New Roman;fontSize=2;endArrow=none;endFill=0;strokeColor=#808080;" edge="1" parent="sduHOVPVzKcLiKWjeiUl-88" source="sduHOVPVzKcLiKWjeiUl-91" target="sduHOVPVzKcLiKWjeiUl-99">
          <mxGeometry relative="1" as="geometry" />
        </mxCell>
        <mxCell id="sduHOVPVzKcLiKWjeiUl-102" style="edgeStyle=none;rounded=0;orthogonalLoop=1;jettySize=auto;html=1;exitX=1;exitY=0.5;exitDx=0;exitDy=0;entryX=0;entryY=0.5;entryDx=0;entryDy=0;fontFamily=Times New Roman;fontSize=2;endArrow=none;endFill=0;strokeColor=#808080;" edge="1" parent="sduHOVPVzKcLiKWjeiUl-88" source="sduHOVPVzKcLiKWjeiUl-92" target="sduHOVPVzKcLiKWjeiUl-99">
          <mxGeometry relative="1" as="geometry" />
        </mxCell>
        <mxCell id="sduHOVPVzKcLiKWjeiUl-103" style="edgeStyle=none;rounded=0;orthogonalLoop=1;jettySize=auto;html=1;exitX=1;exitY=0.5;exitDx=0;exitDy=0;entryX=0;entryY=0.5;entryDx=0;entryDy=0;fontFamily=Times New Roman;fontSize=2;endArrow=none;endFill=0;strokeColor=#808080;" edge="1" parent="sduHOVPVzKcLiKWjeiUl-88" source="sduHOVPVzKcLiKWjeiUl-93" target="sduHOVPVzKcLiKWjeiUl-99">
          <mxGeometry relative="1" as="geometry" />
        </mxCell>
        <mxCell id="sduHOVPVzKcLiKWjeiUl-104" value="" style="rounded=0;whiteSpace=wrap;html=1;fontFamily=Times New Roman;fontSize=2;strokeColor=#808080;" vertex="1" parent="sduHOVPVzKcLiKWjeiUl-88">
          <mxGeometry x="40" y="60.5" width="20" height="20" as="geometry" />
        </mxCell>
        <mxCell id="sduHOVPVzKcLiKWjeiUl-105" style="edgeStyle=none;rounded=0;orthogonalLoop=1;jettySize=auto;html=1;entryX=0;entryY=0.5;entryDx=0;entryDy=0;fontFamily=Times New Roman;fontSize=2;endArrow=none;endFill=0;exitX=1;exitY=0.5;exitDx=0;exitDy=0;strokeColor=#808080;" edge="1" parent="sduHOVPVzKcLiKWjeiUl-88" source="sduHOVPVzKcLiKWjeiUl-89" target="sduHOVPVzKcLiKWjeiUl-104">
          <mxGeometry relative="1" as="geometry" />
        </mxCell>
        <mxCell id="sduHOVPVzKcLiKWjeiUl-106" style="edgeStyle=none;rounded=0;orthogonalLoop=1;jettySize=auto;html=1;exitX=1;exitY=0.5;exitDx=0;exitDy=0;entryX=0;entryY=0.5;entryDx=0;entryDy=0;fontFamily=Times New Roman;fontSize=2;endArrow=none;endFill=0;strokeColor=#808080;" edge="1" parent="sduHOVPVzKcLiKWjeiUl-88" source="sduHOVPVzKcLiKWjeiUl-92" target="sduHOVPVzKcLiKWjeiUl-104">
          <mxGeometry relative="1" as="geometry" />
        </mxCell>
        <mxCell id="sduHOVPVzKcLiKWjeiUl-107" style="edgeStyle=none;rounded=0;orthogonalLoop=1;jettySize=auto;html=1;exitX=1;exitY=0.5;exitDx=0;exitDy=0;entryX=0;entryY=0.5;entryDx=0;entryDy=0;fontFamily=Times New Roman;fontSize=2;endArrow=none;endFill=0;strokeColor=#808080;" edge="1" parent="sduHOVPVzKcLiKWjeiUl-88" source="sduHOVPVzKcLiKWjeiUl-93" target="sduHOVPVzKcLiKWjeiUl-104">
          <mxGeometry relative="1" as="geometry" />
        </mxCell>
        <mxCell id="sduHOVPVzKcLiKWjeiUl-108" value="" style="rounded=0;whiteSpace=wrap;html=1;fontFamily=Times New Roman;fontSize=2;strokeColor=#808080;" vertex="1" parent="sduHOVPVzKcLiKWjeiUl-88">
          <mxGeometry x="40" y="90.5" width="20" height="20" as="geometry" />
        </mxCell>
        <mxCell id="sduHOVPVzKcLiKWjeiUl-109" style="edgeStyle=none;rounded=0;orthogonalLoop=1;jettySize=auto;html=1;entryX=0;entryY=0.5;entryDx=0;entryDy=0;fontFamily=Times New Roman;fontSize=2;endArrow=none;endFill=0;exitX=1;exitY=0.5;exitDx=0;exitDy=0;strokeColor=#808080;" edge="1" parent="sduHOVPVzKcLiKWjeiUl-88" source="sduHOVPVzKcLiKWjeiUl-89" target="sduHOVPVzKcLiKWjeiUl-108">
          <mxGeometry relative="1" as="geometry" />
        </mxCell>
        <mxCell id="sduHOVPVzKcLiKWjeiUl-110" style="edgeStyle=none;rounded=0;orthogonalLoop=1;jettySize=auto;html=1;exitX=1;exitY=0.5;exitDx=0;exitDy=0;entryX=0;entryY=0.5;entryDx=0;entryDy=0;fontFamily=Times New Roman;fontSize=2;endArrow=none;endFill=0;strokeColor=#808080;" edge="1" parent="sduHOVPVzKcLiKWjeiUl-88" source="sduHOVPVzKcLiKWjeiUl-91" target="sduHOVPVzKcLiKWjeiUl-108">
          <mxGeometry relative="1" as="geometry" />
        </mxCell>
        <mxCell id="sduHOVPVzKcLiKWjeiUl-111" style="edgeStyle=none;rounded=0;orthogonalLoop=1;jettySize=auto;html=1;exitX=1;exitY=0.5;exitDx=0;exitDy=0;entryX=0;entryY=0.5;entryDx=0;entryDy=0;fontFamily=Times New Roman;fontSize=2;endArrow=none;endFill=0;strokeColor=#808080;" edge="1" parent="sduHOVPVzKcLiKWjeiUl-88" source="sduHOVPVzKcLiKWjeiUl-92" target="sduHOVPVzKcLiKWjeiUl-108">
          <mxGeometry relative="1" as="geometry" />
        </mxCell>
        <mxCell id="sduHOVPVzKcLiKWjeiUl-112" style="edgeStyle=none;rounded=0;orthogonalLoop=1;jettySize=auto;html=1;exitX=1;exitY=0.5;exitDx=0;exitDy=0;entryX=0;entryY=0.5;entryDx=0;entryDy=0;fontFamily=Times New Roman;fontSize=2;endArrow=none;endFill=0;strokeColor=#808080;" edge="1" parent="sduHOVPVzKcLiKWjeiUl-88" source="sduHOVPVzKcLiKWjeiUl-93" target="sduHOVPVzKcLiKWjeiUl-108">
          <mxGeometry relative="1" as="geometry" />
        </mxCell>
        <mxCell id="sduHOVPVzKcLiKWjeiUl-113" style="edgeStyle=none;rounded=0;orthogonalLoop=1;jettySize=auto;html=1;entryX=1;entryY=0.5;entryDx=0;entryDy=0;fontFamily=Times New Roman;fontSize=2;endArrow=none;endFill=0;strokeColor=#808080;" edge="1" parent="sduHOVPVzKcLiKWjeiUl-88" source="sduHOVPVzKcLiKWjeiUl-89" target="sduHOVPVzKcLiKWjeiUl-89">
          <mxGeometry relative="1" as="geometry" />
        </mxCell>
        <mxCell id="sduHOVPVzKcLiKWjeiUl-114" value="&lt;font style=&quot;font-size: 18px;&quot;&gt;Reranker&lt;/font&gt;" style="rounded=1;whiteSpace=wrap;html=1;fontSize=15;fillColor=#dae8fc;strokeColor=#6c8ebf;strokeWidth=1;fillStyle=auto;fontFamily=Times New Roman;opacity=80;" vertex="1" parent="sduHOVPVzKcLiKWjeiUl-58">
          <mxGeometry width="110" height="290" as="geometry" />
        </mxCell>
        <mxCell id="sduHOVPVzKcLiKWjeiUl-115" style="edgeStyle=none;rounded=0;orthogonalLoop=1;jettySize=auto;html=1;entryX=-0.003;entryY=0.068;entryDx=0;entryDy=0;entryPerimeter=0;strokeColor=#000000;fontFamily=Times New Roman;fontSize=2;endArrow=classicThin;endFill=1;" edge="1" parent="1" source="sduHOVPVzKcLiKWjeiUl-116">
          <mxGeometry relative="1" as="geometry">
            <mxPoint x="-741.21" y="1194.96" as="targetPoint" />
          </mxGeometry>
        </mxCell>
        <mxCell id="sduHOVPVzKcLiKWjeiUl-116" value="Er" style="text;html=1;align=right;verticalAlign=middle;resizable=0;points=[];autosize=1;strokeColor=none;fillColor=none;fontSize=16;fontFamily=Times New Roman;" vertex="1" parent="1">
          <mxGeometry x="-805" y="1180" width="40" height="30" as="geometry" />
        </mxCell>
        <mxCell id="sduHOVPVzKcLiKWjeiUl-117" style="edgeStyle=none;rounded=0;orthogonalLoop=1;jettySize=auto;html=1;entryX=-0.003;entryY=0.219;entryDx=0;entryDy=0;entryPerimeter=0;strokeColor=#000000;fontFamily=Times New Roman;fontSize=2;endArrow=classicThin;endFill=1;" edge="1" parent="1" source="sduHOVPVzKcLiKWjeiUl-118">
          <mxGeometry relative="1" as="geometry">
            <mxPoint x="-741.21" y="1227.1799999999998" as="targetPoint" />
          </mxGeometry>
        </mxCell>
        <mxCell id="sduHOVPVzKcLiKWjeiUl-118" value="lebt" style="text;html=1;align=right;verticalAlign=middle;resizable=0;points=[];autosize=1;strokeColor=none;fillColor=none;fontSize=16;fontFamily=Times New Roman;" vertex="1" parent="1">
          <mxGeometry x="-815" y="1212" width="50" height="30" as="geometry" />
        </mxCell>
        <mxCell id="sduHOVPVzKcLiKWjeiUl-119" style="edgeStyle=none;rounded=0;orthogonalLoop=1;jettySize=auto;html=1;entryX=-0.009;entryY=0.354;entryDx=0;entryDy=0;entryPerimeter=0;strokeColor=#000000;fontFamily=Times New Roman;fontSize=2;endArrow=classicThin;endFill=1;" edge="1" parent="1" source="sduHOVPVzKcLiKWjeiUl-120">
          <mxGeometry relative="1" as="geometry">
            <mxPoint x="-741.6300000000001" y="1256.88" as="targetPoint" />
          </mxGeometry>
        </mxCell>
        <mxCell id="sduHOVPVzKcLiKWjeiUl-120" value="in" style="text;html=1;align=right;verticalAlign=middle;resizable=0;points=[];autosize=1;strokeColor=none;fillColor=none;fontSize=16;fontFamily=Times New Roman;" vertex="1" parent="1">
          <mxGeometry x="-805" y="1242" width="40" height="30" as="geometry" />
        </mxCell>
        <mxCell id="sduHOVPVzKcLiKWjeiUl-121" style="edgeStyle=none;rounded=0;orthogonalLoop=1;jettySize=auto;html=1;entryX=0;entryY=0.5;entryDx=0;entryDy=0;strokeColor=#000000;fontFamily=Times New Roman;fontSize=2;endArrow=classicThin;endFill=1;" edge="1" parent="1" source="sduHOVPVzKcLiKWjeiUl-122">
          <mxGeometry relative="1" as="geometry">
            <mxPoint x="-741" y="1343" as="targetPoint" />
          </mxGeometry>
        </mxCell>
        <mxCell id="sduHOVPVzKcLiKWjeiUl-122" value="He" style="text;html=1;align=right;verticalAlign=middle;resizable=0;points=[];autosize=1;strokeColor=none;fillColor=none;fontSize=16;fontFamily=Times New Roman;" vertex="1" parent="1">
          <mxGeometry x="-805" y="1328" width="40" height="30" as="geometry" />
        </mxCell>
        <mxCell id="sduHOVPVzKcLiKWjeiUl-123" style="edgeStyle=none;rounded=0;orthogonalLoop=1;jettySize=auto;html=1;entryX=-0.011;entryY=0.65;entryDx=0;entryDy=0;entryPerimeter=0;strokeColor=#000000;fontFamily=Times New Roman;fontSize=2;endArrow=classicThin;endFill=1;" edge="1" parent="1" source="sduHOVPVzKcLiKWjeiUl-124">
          <mxGeometry relative="1" as="geometry">
            <mxPoint x="-741.77" y="1373" as="targetPoint" />
          </mxGeometry>
        </mxCell>
        <mxCell id="sduHOVPVzKcLiKWjeiUl-124" value="&lt;font color=&quot;#ff0000&quot; style=&quot;font-size: 16px;&quot;&gt;&lt;b style=&quot;font-size: 16px;&quot;&gt;[MASK]&lt;/b&gt;&lt;/font&gt;" style="text;html=1;align=right;verticalAlign=middle;resizable=0;points=[];autosize=1;strokeColor=none;fillColor=none;fontSize=16;fontFamily=Times New Roman;spacingLeft=-25;" vertex="1" parent="1">
          <mxGeometry x="-825" y="1358" width="60" height="30" as="geometry" />
        </mxCell>
        <mxCell id="sduHOVPVzKcLiKWjeiUl-125" style="edgeStyle=none;rounded=0;orthogonalLoop=1;jettySize=auto;html=1;entryX=-0.009;entryY=0.786;entryDx=0;entryDy=0;entryPerimeter=0;strokeColor=#000000;fontFamily=Times New Roman;fontSize=2;endArrow=classicThin;endFill=1;" edge="1" parent="1" source="sduHOVPVzKcLiKWjeiUl-126">
          <mxGeometry relative="1" as="geometry">
            <mxPoint x="-741.6300000000001" y="1403.92" as="targetPoint" />
          </mxGeometry>
        </mxCell>
        <mxCell id="sduHOVPVzKcLiKWjeiUl-126" value="village" style="text;html=1;align=right;verticalAlign=middle;resizable=0;points=[];autosize=1;strokeColor=none;fillColor=none;fontSize=16;fontFamily=Times New Roman;spacingLeft=-10;" vertex="1" parent="1">
          <mxGeometry x="-825" y="1389" width="60" height="30" as="geometry" />
        </mxCell>
        <mxCell id="sduHOVPVzKcLiKWjeiUl-127" style="edgeStyle=none;rounded=0;orthogonalLoop=1;jettySize=auto;html=1;entryX=-0.008;entryY=0.932;entryDx=0;entryDy=0;entryPerimeter=0;strokeColor=#000000;fontFamily=Times New Roman;fontSize=2;endArrow=classicThin;endFill=1;" edge="1" parent="1" source="sduHOVPVzKcLiKWjeiUl-128">
          <mxGeometry relative="1" as="geometry">
            <mxPoint x="-741.56" y="1433.04" as="targetPoint" />
          </mxGeometry>
        </mxCell>
        <mxCell id="sduHOVPVzKcLiKWjeiUl-128" value="." style="text;html=1;align=right;verticalAlign=middle;resizable=0;points=[];autosize=1;strokeColor=none;fillColor=none;fontSize=16;fontFamily=Times New Roman;" vertex="1" parent="1">
          <mxGeometry x="-795" y="1418" width="30" height="30" as="geometry" />
        </mxCell>
        <mxCell id="sduHOVPVzKcLiKWjeiUl-129" style="edgeStyle=none;rounded=0;orthogonalLoop=1;jettySize=auto;html=1;entryX=-0.009;entryY=0.354;entryDx=0;entryDy=0;entryPerimeter=0;strokeColor=#000000;fontFamily=Times New Roman;fontSize=2;endArrow=classicThin;endFill=1;" edge="1" parent="1" source="sduHOVPVzKcLiKWjeiUl-130">
          <mxGeometry relative="1" as="geometry">
            <mxPoint x="-741" y="1284.88" as="targetPoint" />
          </mxGeometry>
        </mxCell>
        <mxCell id="sduHOVPVzKcLiKWjeiUl-130" value="..." style="text;html=1;align=right;verticalAlign=middle;resizable=0;points=[];autosize=1;strokeColor=none;fillColor=none;fontSize=16;fontFamily=Times New Roman;" vertex="1" parent="1">
          <mxGeometry x="-804.37" y="1270" width="40" height="30" as="geometry" />
        </mxCell>
        <mxCell id="sduHOVPVzKcLiKWjeiUl-131" value="" style="endArrow=classic;html=1;rounded=0;strokeColor=#000000;strokeWidth=1;fontSize=16;" edge="1" parent="1">
          <mxGeometry width="50" height="50" relative="1" as="geometry">
            <mxPoint x="-631" y="1372.85" as="sourcePoint" />
            <mxPoint x="-609" y="1373" as="targetPoint" />
          </mxGeometry>
        </mxCell>
        <mxCell id="sduHOVPVzKcLiKWjeiUl-132" style="edgeStyle=orthogonalEdgeStyle;rounded=0;orthogonalLoop=1;jettySize=auto;html=1;entryX=0.001;entryY=0.647;entryDx=0;entryDy=0;entryPerimeter=0;strokeColor=#000000;strokeWidth=1;fontFamily=Times New Roman;fontSize=12;endArrow=block;endFill=1;" edge="1" parent="1" source="sduHOVPVzKcLiKWjeiUl-133" target="sduHOVPVzKcLiKWjeiUl-135">
          <mxGeometry relative="1" as="geometry" />
        </mxCell>
        <mxCell id="sduHOVPVzKcLiKWjeiUl-133" value="&lt;font style=&quot;font-size: 16px;&quot;&gt;&lt;b&gt;h&lt;/b&gt;&lt;sub&gt;[mask]&lt;/sub&gt;&lt;/font&gt;" style="rounded=0;whiteSpace=wrap;html=1;fontFamily=Times New Roman;fontSize=2;strokeColor=#82b366;fillColor=#d5e8d4;" vertex="1" parent="1">
          <mxGeometry x="-610" y="1359.94" width="51" height="27.06" as="geometry" />
        </mxCell>
        <mxCell id="sduHOVPVzKcLiKWjeiUl-134" value="" style="group" vertex="1" connectable="0" parent="1">
          <mxGeometry x="-479" y="1299.47" width="130" height="168.52999999999997" as="geometry" />
        </mxCell>
        <mxCell id="sduHOVPVzKcLiKWjeiUl-135" value="" style="html=1;verticalLabelPosition=bottom;align=center;labelBackgroundColor=#ffffff;verticalAlign=top;strokeWidth=1;shadow=0;dashed=0;shape=mxgraph.ios7.icons.document;labelBorderColor=none;fontFamily=Times New Roman;fontSize=12;opacity=80;fillColor=#eeeeee;strokeColor=#36393d;" vertex="1" parent="sduHOVPVzKcLiKWjeiUl-134">
          <mxGeometry width="85.46" height="114" as="geometry" />
        </mxCell>
        <mxCell id="sduHOVPVzKcLiKWjeiUl-136" value="&lt;font color=&quot;#000000&quot;&gt;po&lt;/font&gt;&lt;font color=&quot;#b3b3b3&quot;&gt;ol&lt;/font&gt;&lt;font color=&quot;#000000&quot;&gt;&amp;nbsp; &amp;nbsp; &amp;nbsp; &amp;nbsp; 0.62&lt;br&gt;po&lt;/font&gt;&lt;font color=&quot;#b3b3b3&quot;&gt;or&lt;/font&gt;&lt;font color=&quot;#000000&quot;&gt;&amp;nbsp; &amp;nbsp; &amp;nbsp; &amp;nbsp; 0.21&lt;/font&gt;&lt;br&gt;&lt;font color=&quot;#b3b3b3&quot;&gt;beauty&amp;nbsp;&lt;/font&gt;&lt;font color=&quot;#000000&quot;&gt;&amp;nbsp; &amp;nbsp; 0.00&lt;br&gt;...&amp;nbsp; &amp;nbsp; &amp;nbsp; &amp;nbsp; &amp;nbsp; &amp;nbsp; &amp;nbsp;...&lt;br&gt;&lt;/font&gt;" style="rounded=0;whiteSpace=wrap;html=1;labelBorderColor=none;strokeColor=none;strokeWidth=1;fontFamily=Times New Roman;fontSize=12;fontColor=#FF0000;fillColor=none;opacity=80;align=left;" vertex="1" parent="sduHOVPVzKcLiKWjeiUl-134">
          <mxGeometry x="2.999999999999943" y="39.5" width="80" height="58" as="geometry" />
        </mxCell>
        <mxCell id="sduHOVPVzKcLiKWjeiUl-137" value="Vocab.&amp;nbsp; &amp;nbsp; Prob." style="text;html=1;align=left;verticalAlign=middle;resizable=0;points=[];autosize=1;strokeColor=none;fillColor=none;fontSize=12;fontFamily=Times New Roman;fontColor=#000000;" vertex="1" parent="sduHOVPVzKcLiKWjeiUl-134">
          <mxGeometry x="1.9999999999999432" y="14.5" width="90" height="30" as="geometry" />
        </mxCell>
        <mxCell id="sduHOVPVzKcLiKWjeiUl-138" value="&lt;span style=&quot;background-color: initial;&quot;&gt;“po”&lt;br&gt;&lt;/span&gt;hunam typed characters" style="text;html=1;align=left;verticalAlign=middle;resizable=0;points=[];autosize=1;strokeColor=none;fillColor=none;fontSize=16;fontFamily=Times New Roman;" vertex="1" parent="sduHOVPVzKcLiKWjeiUl-134">
          <mxGeometry x="-50" y="118.52999999999997" width="180" height="50" as="geometry" />
        </mxCell>
        <mxCell id="sduHOVPVzKcLiKWjeiUl-139" value="" style="endArrow=classic;html=1;rounded=0;strokeColor=#000000;fontFamily=Times New Roman;fontSize=12;fontColor=#000000;exitX=0.982;exitY=0.16;exitDx=0;exitDy=0;exitPerimeter=0;" edge="1" parent="sduHOVPVzKcLiKWjeiUl-134">
          <mxGeometry width="50" height="50" relative="1" as="geometry">
            <mxPoint x="85.45999999999992" y="73.43999999999983" as="sourcePoint" />
            <mxPoint x="157" y="73.52999999999997" as="targetPoint" />
          </mxGeometry>
        </mxCell>
        <mxCell id="sduHOVPVzKcLiKWjeiUl-140" value="Negative&lt;br style=&quot;font-size: 13px;&quot;&gt;Sampling" style="edgeLabel;html=1;align=center;verticalAlign=middle;resizable=0;points=[];fontSize=13;fontFamily=Times New Roman;fontColor=#000000;" vertex="1" connectable="0" parent="sduHOVPVzKcLiKWjeiUl-139">
          <mxGeometry x="-0.2915" relative="1" as="geometry">
            <mxPoint x="6" y="-22" as="offset" />
          </mxGeometry>
        </mxCell>
        <mxCell id="sduHOVPVzKcLiKWjeiUl-141" style="edgeStyle=orthogonalEdgeStyle;rounded=0;orthogonalLoop=1;jettySize=auto;html=1;strokeColor=#000000;strokeWidth=1;fontFamily=Times New Roman;fontSize=12;endArrow=block;endFill=1;" edge="1" parent="1" source="sduHOVPVzKcLiKWjeiUl-142">
          <mxGeometry relative="1" as="geometry">
            <mxPoint x="-538" y="1369" as="targetPoint" />
          </mxGeometry>
        </mxCell>
        <mxCell id="sduHOVPVzKcLiKWjeiUl-142" value="" style="shape=table;startSize=0;container=1;collapsible=0;childLayout=tableLayout;rounded=0;fillStyle=auto;strokeColor=#82b366;strokeWidth=1;fontSize=16;fillColor=#d5e8d4;fontFamily=Times New Roman;" vertex="1" parent="1">
          <mxGeometry x="-576" y="1225" width="75.88" height="88" as="geometry" />
        </mxCell>
        <mxCell id="sduHOVPVzKcLiKWjeiUl-143" value="" style="shape=tableRow;horizontal=0;startSize=0;swimlaneHead=0;swimlaneBody=0;top=0;left=0;bottom=0;right=0;collapsible=0;dropTarget=0;fillColor=none;points=[[0,0.5],[1,0.5]];portConstraint=eastwest;rounded=0;fillStyle=auto;strokeColor=#000000;strokeWidth=1;fontSize=11;fontFamily=Times New Roman;" vertex="1" parent="sduHOVPVzKcLiKWjeiUl-142">
          <mxGeometry width="75.88" height="24" as="geometry" />
        </mxCell>
        <mxCell id="sduHOVPVzKcLiKWjeiUl-144" value="&lt;font style=&quot;font-size: 16px;&quot;&gt;poor&lt;/font&gt;" style="shape=partialRectangle;html=1;whiteSpace=wrap;connectable=0;overflow=hidden;fillColor=none;top=0;left=0;bottom=0;right=0;pointerEvents=1;rounded=0;fillStyle=auto;strokeColor=#000000;strokeWidth=1;fontSize=16;fontFamily=Times New Roman;" vertex="1" parent="sduHOVPVzKcLiKWjeiUl-143">
          <mxGeometry width="76" height="24" as="geometry">
            <mxRectangle width="76" height="24" as="alternateBounds" />
          </mxGeometry>
        </mxCell>
        <mxCell id="sduHOVPVzKcLiKWjeiUl-145" style="shape=tableRow;horizontal=0;startSize=0;swimlaneHead=0;swimlaneBody=0;top=0;left=0;bottom=0;right=0;collapsible=0;dropTarget=0;fillColor=none;points=[[0,0.5],[1,0.5]];portConstraint=eastwest;rounded=0;fillStyle=auto;strokeColor=#000000;strokeWidth=1;fontSize=11;fontFamily=Times New Roman;" vertex="1" parent="sduHOVPVzKcLiKWjeiUl-142">
          <mxGeometry y="24" width="75.88" height="23" as="geometry" />
        </mxCell>
        <mxCell id="sduHOVPVzKcLiKWjeiUl-146" value="pool" style="shape=partialRectangle;html=1;whiteSpace=wrap;connectable=0;overflow=hidden;fillColor=none;top=0;left=0;bottom=0;right=0;pointerEvents=1;rounded=0;fillStyle=auto;strokeColor=#000000;strokeWidth=1;fontSize=16;fontFamily=Times New Roman;" vertex="1" parent="sduHOVPVzKcLiKWjeiUl-145">
          <mxGeometry width="76" height="23" as="geometry">
            <mxRectangle width="76" height="23" as="alternateBounds" />
          </mxGeometry>
        </mxCell>
        <mxCell id="sduHOVPVzKcLiKWjeiUl-147" value="" style="shape=tableRow;horizontal=0;startSize=0;swimlaneHead=0;swimlaneBody=0;top=0;left=0;bottom=0;right=0;collapsible=0;dropTarget=0;fillColor=none;points=[[0,0.5],[1,0.5]];portConstraint=eastwest;rounded=0;fillStyle=auto;strokeColor=#000000;strokeWidth=1;fontSize=11;fontFamily=Times New Roman;" vertex="1" parent="sduHOVPVzKcLiKWjeiUl-142">
          <mxGeometry y="47" width="75.88" height="20" as="geometry" />
        </mxCell>
        <mxCell id="sduHOVPVzKcLiKWjeiUl-148" value="&lt;span style=&quot;text-align: left;&quot;&gt;&lt;font style=&quot;font-size: 16px;&quot;&gt;beauty&lt;/font&gt;&lt;/span&gt;" style="shape=partialRectangle;html=1;whiteSpace=wrap;connectable=0;overflow=hidden;fillColor=none;top=0;left=0;bottom=0;right=0;pointerEvents=1;rounded=0;fillStyle=auto;strokeColor=#000000;strokeWidth=1;fontSize=16;fontFamily=Times New Roman;" vertex="1" parent="sduHOVPVzKcLiKWjeiUl-147">
          <mxGeometry width="76" height="20" as="geometry">
            <mxRectangle width="76" height="20" as="alternateBounds" />
          </mxGeometry>
        </mxCell>
        <mxCell id="sduHOVPVzKcLiKWjeiUl-149" value="" style="shape=tableRow;horizontal=0;startSize=0;swimlaneHead=0;swimlaneBody=0;top=0;left=0;bottom=0;right=0;collapsible=0;dropTarget=0;fillColor=none;points=[[0,0.5],[1,0.5]];portConstraint=eastwest;rounded=0;fillStyle=auto;strokeColor=#000000;strokeWidth=1;fontSize=11;fontFamily=Times New Roman;" vertex="1" parent="sduHOVPVzKcLiKWjeiUl-142">
          <mxGeometry y="67" width="75.88" height="21" as="geometry" />
        </mxCell>
        <mxCell id="sduHOVPVzKcLiKWjeiUl-150" value="..." style="shape=partialRectangle;html=1;whiteSpace=wrap;connectable=0;overflow=hidden;fillColor=none;top=0;left=0;bottom=0;right=0;pointerEvents=1;rounded=0;fillStyle=auto;strokeColor=#000000;strokeWidth=1;fontSize=11;fontFamily=Times New Roman;" vertex="1" parent="sduHOVPVzKcLiKWjeiUl-149">
          <mxGeometry width="76" height="21" as="geometry">
            <mxRectangle width="76" height="21" as="alternateBounds" />
          </mxGeometry>
        </mxCell>
        <mxCell id="sduHOVPVzKcLiKWjeiUl-151" value="" style="endArrow=classic;html=1;rounded=0;strokeColor=#000000;strokeWidth=1;fontFamily=Times New Roman;fontSize=12;" edge="1" parent="1">
          <mxGeometry width="50" height="50" relative="1" as="geometry">
            <mxPoint x="-509.6199999999999" y="1413" as="sourcePoint" />
            <mxPoint x="-509.6199999999999" y="1373" as="targetPoint" />
          </mxGeometry>
        </mxCell>
        <mxCell id="sduHOVPVzKcLiKWjeiUl-152" style="edgeStyle=none;rounded=0;orthogonalLoop=1;jettySize=auto;html=1;entryX=-0.003;entryY=0.068;entryDx=0;entryDy=0;entryPerimeter=0;strokeColor=#000000;fontFamily=Times New Roman;fontSize=2;endArrow=classicThin;endFill=1;" edge="1" parent="1" source="sduHOVPVzKcLiKWjeiUl-153">
          <mxGeometry relative="1" as="geometry">
            <mxPoint x="-261.21000000000004" y="1194.96" as="targetPoint" />
          </mxGeometry>
        </mxCell>
        <mxCell id="sduHOVPVzKcLiKWjeiUl-153" value="Er" style="text;html=1;align=right;verticalAlign=middle;resizable=0;points=[];autosize=1;strokeColor=none;fillColor=none;fontSize=16;fontFamily=Times New Roman;" vertex="1" parent="1">
          <mxGeometry x="-325" y="1180" width="40" height="30" as="geometry" />
        </mxCell>
        <mxCell id="sduHOVPVzKcLiKWjeiUl-154" style="edgeStyle=none;rounded=0;orthogonalLoop=1;jettySize=auto;html=1;entryX=-0.003;entryY=0.219;entryDx=0;entryDy=0;entryPerimeter=0;strokeColor=#000000;fontFamily=Times New Roman;fontSize=2;endArrow=classicThin;endFill=1;" edge="1" parent="1" source="sduHOVPVzKcLiKWjeiUl-155">
          <mxGeometry relative="1" as="geometry">
            <mxPoint x="-261.21000000000004" y="1227.1799999999998" as="targetPoint" />
          </mxGeometry>
        </mxCell>
        <mxCell id="sduHOVPVzKcLiKWjeiUl-155" value="lebt" style="text;html=1;align=right;verticalAlign=middle;resizable=0;points=[];autosize=1;strokeColor=none;fillColor=none;fontSize=16;fontFamily=Times New Roman;" vertex="1" parent="1">
          <mxGeometry x="-335" y="1212" width="50" height="30" as="geometry" />
        </mxCell>
        <mxCell id="sduHOVPVzKcLiKWjeiUl-156" style="edgeStyle=none;rounded=0;orthogonalLoop=1;jettySize=auto;html=1;entryX=-0.009;entryY=0.354;entryDx=0;entryDy=0;entryPerimeter=0;strokeColor=#000000;fontFamily=Times New Roman;fontSize=2;endArrow=classicThin;endFill=1;" edge="1" parent="1" source="sduHOVPVzKcLiKWjeiUl-157">
          <mxGeometry relative="1" as="geometry">
            <mxPoint x="-261.6300000000001" y="1256.88" as="targetPoint" />
          </mxGeometry>
        </mxCell>
        <mxCell id="sduHOVPVzKcLiKWjeiUl-157" value="in" style="text;html=1;align=right;verticalAlign=middle;resizable=0;points=[];autosize=1;strokeColor=none;fillColor=none;fontSize=16;fontFamily=Times New Roman;" vertex="1" parent="1">
          <mxGeometry x="-325" y="1242" width="40" height="30" as="geometry" />
        </mxCell>
        <mxCell id="sduHOVPVzKcLiKWjeiUl-158" style="edgeStyle=none;rounded=0;orthogonalLoop=1;jettySize=auto;html=1;entryX=0;entryY=0.5;entryDx=0;entryDy=0;strokeColor=#000000;fontFamily=Times New Roman;fontSize=2;endArrow=classicThin;endFill=1;" edge="1" parent="1" source="sduHOVPVzKcLiKWjeiUl-159">
          <mxGeometry relative="1" as="geometry">
            <mxPoint x="-261" y="1343" as="targetPoint" />
          </mxGeometry>
        </mxCell>
        <mxCell id="sduHOVPVzKcLiKWjeiUl-159" value="He" style="text;html=1;align=right;verticalAlign=middle;resizable=0;points=[];autosize=1;strokeColor=none;fillColor=none;fontSize=16;fontFamily=Times New Roman;" vertex="1" parent="1">
          <mxGeometry x="-325" y="1328" width="40" height="30" as="geometry" />
        </mxCell>
        <mxCell id="sduHOVPVzKcLiKWjeiUl-160" style="edgeStyle=none;rounded=0;orthogonalLoop=1;jettySize=auto;html=1;entryX=-0.011;entryY=0.65;entryDx=0;entryDy=0;entryPerimeter=0;strokeColor=#000000;fontFamily=Times New Roman;fontSize=2;endArrow=classicThin;endFill=1;" edge="1" parent="1" source="sduHOVPVzKcLiKWjeiUl-161">
          <mxGeometry relative="1" as="geometry">
            <mxPoint x="-261.77" y="1373" as="targetPoint" />
          </mxGeometry>
        </mxCell>
        <mxCell id="sduHOVPVzKcLiKWjeiUl-161" value="&lt;font color=&quot;#ff0000&quot; style=&quot;font-size: 16px;&quot;&gt;&lt;b style=&quot;font-size: 16px;&quot;&gt;pool&lt;/b&gt;&lt;/font&gt;" style="text;html=1;align=right;verticalAlign=middle;resizable=0;points=[];autosize=1;strokeColor=none;fillColor=none;fontSize=16;fontFamily=Times New Roman;spacingLeft=-25;" vertex="1" parent="1">
          <mxGeometry x="-315" y="1358" width="30" height="30" as="geometry" />
        </mxCell>
        <mxCell id="sduHOVPVzKcLiKWjeiUl-162" style="edgeStyle=none;rounded=0;orthogonalLoop=1;jettySize=auto;html=1;entryX=-0.009;entryY=0.786;entryDx=0;entryDy=0;entryPerimeter=0;strokeColor=#000000;fontFamily=Times New Roman;fontSize=2;endArrow=classicThin;endFill=1;" edge="1" parent="1" source="sduHOVPVzKcLiKWjeiUl-163">
          <mxGeometry relative="1" as="geometry">
            <mxPoint x="-261.6300000000001" y="1403.92" as="targetPoint" />
          </mxGeometry>
        </mxCell>
        <mxCell id="sduHOVPVzKcLiKWjeiUl-163" value="village" style="text;html=1;align=right;verticalAlign=middle;resizable=0;points=[];autosize=1;strokeColor=none;fillColor=none;fontSize=16;fontFamily=Times New Roman;spacingLeft=-10;" vertex="1" parent="1">
          <mxGeometry x="-345" y="1389" width="60" height="30" as="geometry" />
        </mxCell>
        <mxCell id="sduHOVPVzKcLiKWjeiUl-164" style="edgeStyle=none;rounded=0;orthogonalLoop=1;jettySize=auto;html=1;entryX=-0.008;entryY=0.932;entryDx=0;entryDy=0;entryPerimeter=0;strokeColor=#000000;fontFamily=Times New Roman;fontSize=2;endArrow=classicThin;endFill=1;" edge="1" parent="1" source="sduHOVPVzKcLiKWjeiUl-165">
          <mxGeometry relative="1" as="geometry">
            <mxPoint x="-261.55999999999995" y="1433.04" as="targetPoint" />
          </mxGeometry>
        </mxCell>
        <mxCell id="sduHOVPVzKcLiKWjeiUl-165" value="." style="text;html=1;align=right;verticalAlign=middle;resizable=0;points=[];autosize=1;strokeColor=none;fillColor=none;fontSize=16;fontFamily=Times New Roman;" vertex="1" parent="1">
          <mxGeometry x="-315" y="1418" width="30" height="30" as="geometry" />
        </mxCell>
        <mxCell id="sduHOVPVzKcLiKWjeiUl-166" style="edgeStyle=none;rounded=0;orthogonalLoop=1;jettySize=auto;html=1;entryX=-0.009;entryY=0.354;entryDx=0;entryDy=0;entryPerimeter=0;strokeColor=#000000;fontFamily=Times New Roman;fontSize=2;endArrow=classicThin;endFill=1;" edge="1" parent="1" source="sduHOVPVzKcLiKWjeiUl-167">
          <mxGeometry relative="1" as="geometry">
            <mxPoint x="-261" y="1284.88" as="targetPoint" />
          </mxGeometry>
        </mxCell>
        <mxCell id="sduHOVPVzKcLiKWjeiUl-167" value="..." style="text;html=1;align=right;verticalAlign=middle;resizable=0;points=[];autosize=1;strokeColor=none;fillColor=none;fontSize=16;fontFamily=Times New Roman;" vertex="1" parent="1">
          <mxGeometry x="-324.37" y="1270" width="40" height="30" as="geometry" />
        </mxCell>
        <mxCell id="sduHOVPVzKcLiKWjeiUl-168" value="Match?" style="endArrow=classic;html=1;rounded=0;strokeColor=#000000;strokeWidth=1;fontFamily=Times New Roman;fontSize=13;" edge="1" parent="1">
          <mxGeometry relative="1" as="geometry">
            <mxPoint x="-152" y="1373.2399999999998" as="sourcePoint" />
            <mxPoint x="-82" y="1373" as="targetPoint" />
          </mxGeometry>
        </mxCell>
        <mxCell id="sduHOVPVzKcLiKWjeiUl-169" value="Match?" style="edgeLabel;resizable=0;html=1;align=center;verticalAlign=middle;strokeColor=#000000;fontFamily=Times New Roman;fontSize=13;" connectable="0" vertex="1" parent="sduHOVPVzKcLiKWjeiUl-168">
          <mxGeometry relative="1" as="geometry" />
        </mxCell>
        <mxCell id="sduHOVPVzKcLiKWjeiUl-170" value="&lt;font style=&quot;font-size: 16px;&quot;&gt;☹️&lt;/font&gt;" style="text;html=1;align=center;verticalAlign=middle;resizable=0;points=[];autosize=1;strokeColor=none;fillColor=none;fontSize=13;fontFamily=Times New Roman;" vertex="1" parent="1">
          <mxGeometry x="-90" y="1359" width="40" height="30" as="geometry" />
        </mxCell>
      </root>
    </mxGraphModel>
  </diagram>
</mxfile>
